<?xml version="1.0" encoding="UTF-8"?>
<svg version="1.1" xmlns="http://www.w3.org/2000/svg" width="692" height="901">
<path d="M0 0 C29.37 0 58.74 0 89 0 C88.99476318 7.61360596 88.98952637 15.22721191 88.98413086 23.0715332 C88.96802309 47.53431998 88.95693289 71.99710661 88.94893467 96.4598973 C88.94768422 100.27054678 88.94638987 104.08119625 88.94506836 107.8918457 C88.94480605 108.6503607 88.94454374 109.4088757 88.94427348 110.19037601 C88.93994229 122.41327286 88.932069 134.63616492 88.9228472 146.85905895 C88.9134393 159.43509704 88.90792941 172.01113266 88.90591151 184.58717412 C88.90455097 192.3243514 88.90028134 200.06151515 88.89208353 207.79868826 C88.88608736 213.76823582 88.88555883 219.73777217 88.88689232 225.70732307 C88.8866209 228.12933179 88.88468235 230.5513411 88.88079453 232.97334671 C88.8553442 249.67060366 89.27015547 266.31854505 90 283 C91.11916156 281.25927204 92.2359737 279.51703345 93.35180664 277.77416992 C93.97398575 276.80412521 94.59616486 275.83408051 95.23719788 274.8346405 C99.04230329 268.71591296 101.99679062 262.23908013 104.85498047 255.63525391 C105.60465909 253.90987415 106.37388127 252.19282405 107.16455078 250.48583984 C113.30497608 236.96336871 114.55303809 224.4966605 114.6875 209.88671875 C114.71679425 208.00731935 114.7473878 206.12793982 114.7791748 204.24858093 C114.85930717 199.20906507 114.91733714 194.16955142 114.9680481 189.12966156 C115.00004243 185.99584405 115.03595848 182.86209417 115.07299805 179.72833252 C115.26313115 163.46868555 115.40009129 147.20867908 115.52606201 130.94842529 C115.57743203 124.31953816 115.63221086 117.69069797 115.69187927 111.06188011 C115.71788508 108.02672696 115.73898788 104.99156699 115.7598877 101.95637512 C115.84813565 91.26907135 116.18430114 80.65861214 117 70 C128.11027774 69.03231505 139.15985906 68.79122456 150.3046875 68.68359375 C152.12314261 68.66296814 153.94159353 68.64197045 155.76004028 68.62062073 C160.49778812 68.56597796 165.23557496 68.51631908 169.97338867 68.46777344 C175.68390574 68.40819379 181.39435306 68.34229067 187.10481262 68.27747345 C195.7364984 68.18019351 204.36823325 68.09084036 213 68 C213 79.88 213 91.76 213 104 C212.67 104 212.34 104 212 104 C211.90501221 105.13501953 211.81002441 106.27003906 211.7121582 107.43945312 C203.01770247 210.27505442 175.39418924 309.65215527 92.75 397.875 C91.84121094 398.63103516 91.84121094 398.63103516 90.9140625 399.40234375 C88.5857479 401.34577369 86.36260341 403.39040462 84.125 405.4375 C77.92212061 411.02196543 71.41391944 416.15463531 64.7890625 421.2265625 C55.80814783 428.11898099 47.07470954 435.0491357 39 443 C38.24203125 443.74507812 37.4840625 444.49015625 36.703125 445.2578125 C28.51947805 453.84141212 24.59649148 464.63306506 20.4921875 475.5546875 C18.04433969 481.20652458 15.74087459 485.44487929 10 488 C6.20324333 488.55457856 2.4113274 488.60499415 -1.42114258 488.67919922 C-2.6682668 488.71228621 -3.91539103 488.74537319 -5.20030689 488.77946281 C-26.59415111 489.29608155 -48.00859161 489.14537657 -69.40678 489.1343255 C-75.94320957 489.13176006 -82.47963787 489.13415062 -89.0160675 489.13571167 C-100.66951746 489.13783296 -112.32296038 489.13456816 -123.97640911 489.12945233 C-134.50112218 489.12497497 -145.02582423 489.12577298 -155.55053711 489.13037109 C-167.85236123 489.13574328 -180.15417835 489.13770453 -192.45600349 489.13475883 C-198.93954566 489.13320935 -205.42308026 489.13296582 -211.90662193 489.13629532 C-217.99476432 489.13920483 -224.08288605 489.1371423 -230.17102623 489.13140106 C-232.39043137 489.13009052 -234.60983829 489.13043817 -236.82924271 489.13266373 C-243.55386719 489.13878046 -250.27617706 489.1075527 -257 489 C-257.87470452 488.98686437 -258.74940903 488.97372874 -259.65061975 488.96019506 C-262.13165329 488.91147974 -264.60962666 488.83289808 -267.08943176 488.74191284 C-268.16725152 488.72151434 -268.16725152 488.72151434 -269.26684541 488.70070374 C-275.27998885 488.41718364 -278.87504512 486.10094409 -283.07421875 481.94921875 C-286.54041565 476.64094561 -288.65747307 470.67123816 -291.02539062 464.81054688 C-297.67687401 448.88666594 -308.76399215 438.2552111 -322.21484375 427.92578125 C-328.30553636 423.24640509 -334.22253646 418.34939888 -340.16943359 413.48974609 C-341.8316362 412.13701733 -343.50133726 410.79455422 -345.17578125 409.45703125 C-350.1266891 405.47850088 -354.74923661 401.39475466 -359.16796875 396.83203125 C-360.89501056 395.10498944 -362.67747444 393.55065296 -364.5625 392 C-367.7168322 389.34894327 -370.34697849 386.44056538 -373.0078125 383.30078125 C-375.30574074 380.64689942 -377.71535573 378.11532603 -380.125 375.5625 C-408.40746903 345.02822641 -428.80496702 306.41454066 -444 268 C-444.3928418 267.00871094 -444.78568359 266.01742188 -445.19042969 264.99609375 C-463.46460832 218.19674796 -471.76526104 168.73002013 -477 119 C-477.33 149.36 -477.66 179.72 -478 211 C-478.33 211 -478.66 211 -479 211 C-479 163.81 -479 116.62 -479 68 C-463.510625 68.144375 -448.02125 68.28875 -432.0625 68.4375 C-427.16414307 68.48060303 -422.26578613 68.52370605 -417.21899414 68.56811523 C-411.25671387 68.6270752 -411.25671387 68.6270752 -408.46922302 68.65589905 C-406.51428404 68.67517287 -404.55932512 68.69248219 -402.60435486 68.70826721 C-399.65031524 68.73249493 -396.69639807 68.76287454 -393.74243164 68.79467773 C-392.86540368 68.80044799 -391.98837572 68.80621824 -391.08477116 68.81216335 C-385.11402634 68.88597366 -385.11402634 68.88597366 -384 70 C-383.8445314 72.24943928 -383.7597725 74.50376868 -383.70117188 76.7578125 C-383.67201691 77.8273542 -383.67201691 77.8273542 -383.64227295 78.91850281 C-383.57889431 81.32056271 -383.52346362 83.72272798 -383.46875 86.125 C-383.4482106 86.9627597 -383.4276712 87.80051941 -383.4065094 88.66366577 C-382.91538226 108.71234989 -382.72892569 128.76421941 -382.55471802 148.81768799 C-382.46262064 159.36554113 -382.35369703 169.91323326 -382.24609375 180.4609375 C-382.23561445 181.49325878 -382.22513515 182.52558006 -382.2143383 183.58918381 C-382.04894426 199.8424769 -381.88271898 216.09566057 -381.61523438 232.34765625 C-381.58090119 234.48140032 -381.54934491 236.61519147 -381.52099609 238.74902344 C-381.38063584 249.11538943 -381.00759136 259.42139128 -380.12890625 269.75390625 C-380.05781143 270.63104279 -379.98671661 271.50817932 -379.91346741 272.41189575 C-377.07513338 302.70639417 -359.51375471 331.16739296 -337 351 C-334.69 352.65 -332.38 354.3 -330 356 C-329.505 246.11 -329.505 246.11 -329 134 C-299.3 134 -269.6 134 -239 134 C-238.93941406 146.16875 -238.87882813 158.3375 -238.81640625 170.875 C-238.77582502 178.66797136 -238.73504027 186.46094082 -238.69335938 194.25390625 C-238.62750149 206.57404542 -238.56238277 218.8941847 -238.50268555 231.21435547 C-238.45916697 240.19481853 -238.41274302 249.17526158 -238.36312145 258.15569305 C-238.3370504 262.89095863 -238.31223509 267.62622164 -238.29092598 272.36151123 C-238.23519786 284.5748774 -238.14498524 296.78735222 -238 309 C-237.98974084 309.89859489 -237.97948169 310.79718979 -237.96891165 311.72301483 C-237.90428817 317.2010108 -237.82135765 322.67828778 -237.71546924 328.15564537 C-237.68426087 329.85911039 -237.65748188 331.56266384 -237.63569558 333.26627541 C-237.44294579 347.69795307 -237.14709051 364.59929072 -226.40625 375.63793945 C-225.9421875 376.08741943 -225.478125 376.53689941 -225 377 C-223.65940275 361.89082166 -223.82608723 346.73619428 -223.79939139 331.58193541 C-223.79130141 327.59307535 -223.77763402 323.60423365 -223.76467896 319.61538696 C-223.74303666 312.72174666 -223.72484817 305.82810438 -223.70907402 298.93444824 C-223.68626277 288.96764827 -223.65813625 279.00086874 -223.62875474 269.03408623 C-223.58121586 252.85964728 -223.53791502 236.68519993 -223.49731445 220.51074219 C-223.45788947 204.80826158 -223.41644672 189.10578842 -223.37231445 173.40332031 C-223.36822804 171.94898484 -223.36822804 171.94898484 -223.36405908 170.46526885 C-223.35037845 165.60079168 -223.33665841 160.73631462 -223.32291877 155.87183762 C-223.20916955 115.58123974 -223.10310019 75.29062681 -223 35 C-193.3 35 -163.6 35 -133 35 C-133 150.17 -133 265.34 -133 384 C-124.09 383.34 -115.18 382.68 -106 382 C-106 278.71 -106 175.42 -106 69 C-76.3 69 -46.6 69 -16 69 C-16 165.36 -16 261.72 -16 361 C-11.38 359.02 -6.76 357.04 -2 355 C-1.34 355 -0.68 355 0 355 C0 237.85 0 120.7 0 0 Z " fill="#061D42" transform="translate(479,289)"/>
<path d="M0 0 C5.19183561 -0.19986338 10.38136763 -0.34389013 15.57617188 -0.43945312 C17.33763695 -0.47934021 19.09884316 -0.53367417 20.859375 -0.60351562 C33.06095982 -1.07494049 40.54525748 -0.38327414 50 8 C50.93118652 8.7825415 51.86237305 9.56508301 52.82177734 10.37133789 C55.30932889 12.49728986 57.66220942 14.71116839 60 17 C60.62519531 17.58910156 61.25039063 18.17820312 61.89453125 18.78515625 C73.23717007 30.43504488 77.35839107 45.93393417 77.375 61.6875 C77.39949219 62.89083984 77.42398438 64.09417969 77.44921875 65.33398438 C77.51064716 84.28464903 68.35607853 100.06063042 55.55419922 113.453125 C44.72201054 124.23426661 30.19822592 130.83994492 16.74609375 137.72265625 C15.79175194 138.21206696 15.79175194 138.21206696 14.81813049 138.71136475 C11.64353901 140.33866943 8.46518455 141.957394 5.27758789 143.55908203 C-3.90336206 148.21073551 -13.12591162 153.17117713 -20 161 C-20.49113281 161.53753906 -20.98226562 162.07507813 -21.48828125 162.62890625 C-27.39199521 169.6459757 -30.90440758 179.39025392 -30.37890625 188.62890625 C-28.11809736 202.77644231 -20.89587655 212.08168335 -11.73217773 222.53515625 C-5.9424864 229.18832167 -5.9424864 229.18832167 -6.125 234.9375 C-6.7336096 238.86779814 -8.15755735 241.15755735 -11 244 C-14.27168191 245.63584096 -17.46509719 245.51195144 -21 245 C-35.25088575 239.90296787 -46.60799876 225.2983194 -53.01464844 212.1550293 C-60.94463004 195.24822461 -62.57927586 176.99631086 -57 159 C-53.83519751 151.07840347 -49.51802425 144.45926506 -44 138 C-43.40574219 137.26136719 -42.81148438 136.52273437 -42.19921875 135.76171875 C-28.96767057 119.90029764 -9.37769161 111.89005768 8.92749023 103.34033203 C24.08025255 96.23885771 37.82952136 89.179961 45.4375 73.4375 C48.82993552 64.0091727 48.23498648 52.57706195 44.30859375 43.43359375 C40.1875781 35.76973479 33.9299202 29.6248358 28 23.34033203 C23.99339139 19.08587872 22.6596374 17.07414246 22.703125 11.10546875 C23.226606 7.3928864 25.39366349 4.60633651 28 2 C14.14 1.505 14.14 1.505 0 1 C0 0.67 0 0.34 0 0 Z " fill="#061E43" transform="translate(325,0)"/>
<path d="M0 0 C28.71 0 57.42 0 87 0 C87.58627948 6.44907424 88.13534044 12.65974542 88.31640625 19.09375 C88.34764587 20.19516579 88.34764587 20.19516579 88.3795166 21.3188324 C88.4451515 23.71245883 88.50440609 26.10617939 88.5625 28.5 C88.58367889 29.3266214 88.60485779 30.1532428 88.62667847 31.00491333 C89.14720515 51.66807349 89.09854187 72.33197939 89 93 C85.2906409 94.23645303 81.85863175 94.13954913 77.99609375 94.12939453 C76.77371506 94.13202301 76.77371506 94.13202301 75.52664185 94.13470459 C72.83023963 94.13910939 70.13390289 94.13618992 67.4375 94.1328125 C65.5656737 94.13348593 63.69384748 94.13445629 61.82202148 94.13571167 C57.89794075 94.13718678 53.97388278 94.13504005 50.04980469 94.13037109 C45.01574391 94.12467392 39.98173644 94.12795392 34.94767761 94.13394356 C31.08214922 94.13755418 27.21663351 94.13640827 23.35110474 94.13381577 C21.4947204 94.13314789 19.63833491 94.13397008 17.7819519 94.13629532 C15.18923894 94.13883003 12.59661274 94.13496962 10.00390625 94.12939453 C9.23394318 94.13141876 8.4639801 94.13344299 7.67068481 94.13552856 C4.51039346 94.12291641 2.02122974 94.00707658 -1 93 C-1.02317004 81.61258278 -1.04093891 70.22517117 -1.05181217 58.83773518 C-1.05703078 53.55009949 -1.06410992 48.26247992 -1.07543945 42.97485352 C-1.08630459 37.872035 -1.09228455 32.769232 -1.09487724 27.66640282 C-1.09672494 25.71956323 -1.10033299 23.77272448 -1.10573006 21.82589149 C-1.11298856 19.09915964 -1.1139889 16.37249191 -1.11352539 13.64575195 C-1.11712067 12.84086334 -1.12071594 12.03597473 -1.12442017 11.20669556 C-1.11714839 7.25348418 -0.78284972 3.91424861 0 0 Z " fill="#051D42" transform="translate(374,193)"/>
<path d="M0 0 C29.7 0 59.4 0 90 0 C90.08060607 47.52623357 90.08060607 47.52623357 90.09765625 67.39257812 C90.10953847 81.12737516 90.12353138 94.86214772 90.15087891 108.59692383 C90.17078363 118.59844041 90.1837095 128.5999372 90.18817699 138.60147303 C90.19078932 143.89953511 90.19694918 149.19754053 90.21146011 154.49558449 C90.22499796 159.47854507 90.22923036 164.46142547 90.22621536 169.44440269 C90.22676723 171.27662466 90.23076722 173.1088492 90.23841095 174.9410553 C90.24831283 177.43617043 90.2459864 179.93097997 90.24050903 182.42610168 C90.24633472 183.15664334 90.2521604 183.88718499 90.25816262 184.63986427 C90.23620329 188.32255717 90.10160506 189.8475924 88 193 C88 129.97 88 66.94 88 2 C59.29 2 30.58 2 1 2 C1 70.64 1 139.28 1 210 C-1.19702068 205.60595864 -1.26106826 202.45588251 -1.20254517 197.69842529 C-1.20017046 196.85379581 -1.19779576 196.00916632 -1.1953491 195.138942 C-1.18491953 192.30440789 -1.16004157 189.47018443 -1.13525391 186.63574219 C-1.12482945 184.60562561 -1.11529391 182.57550429 -1.10658264 180.54537964 C-1.08038536 175.0291833 -1.04171931 169.51313581 -1.00085878 163.99703121 C-0.9602762 158.23416464 -0.93109937 152.47124078 -0.90072632 146.70831299 C-0.84145891 135.79318624 -0.77189474 124.87815022 -0.69865549 113.96310925 C-0.60029066 99.21517377 -0.51778216 84.46715021 -0.43439865 69.71912384 C-0.30258455 46.47932232 -0.14954248 23.23970985 0 0 Z " fill="#000624" transform="translate(150,423)"/>
<path d="M0 0 C0.33 0 0.66 0 1 0 C1.22786458 2.05078125 1.45572917 4.1015625 1.68359375 6.15234375 C1.81886614 8.01140229 1.81886614 8.01140229 3 9 C3.08700342 10.63472882 3.10701063 12.27314055 3.09765625 13.91015625 C3.09282227 15.39418945 3.09282227 15.39418945 3.08789062 16.90820312 C3.07951172 17.94912109 3.07113281 18.99003906 3.0625 20.0625 C3.05798828 21.10728516 3.05347656 22.15207031 3.04882812 23.22851562 C3.03699913 25.8190666 3.02051689 28.40950559 3 31 C2.67 31 2.34 31 2 31 C1.67 26.38 1.34 21.76 1 17 C0.67 17 0.34 17 0 17 C0 11.39 0 5.78 0 0 Z " fill="#19305A" transform="translate(94,488)"/>
</svg>
